<svg width="1" height="1" viewBox="0 0 33 32" fill="none" xmlns="http://www.w3.org/2000/svg">
<path id="Vector" d="M21.7473 8.0603C20.6884 8.06034 19.6352 8.22387 18.6205 8.54577C18.1856 7.74229 17.63 7.01998 16.9759 6.40751L18.5289 4.05085C18.5957 3.94945 18.6431 3.83503 18.6683 3.71415C18.6936 3.59326 18.6962 3.46827 18.676 3.3463C18.6559 3.22434 18.6134 3.10779 18.5509 3.00332C18.4884 2.89885 18.4072 2.80849 18.3119 2.73741C18.2166 2.66634 18.1091 2.61593 17.9955 2.58907C17.8819 2.56221 17.7645 2.55942 17.6499 2.58087C17.5353 2.60231 17.4258 2.64757 17.3276 2.71406C17.2294 2.78055 17.1445 2.86696 17.0777 2.96837L15.5247 5.32502C14.3542 4.64505 13.042 4.28903 11.7085 4.28966C11.5387 4.28966 11.3719 4.28966 11.205 4.30851L10.7341 1.46954C10.7173 1.34441 10.677 1.22417 10.6156 1.11596C10.5542 1.00775 10.473 0.913785 10.3768 0.839655C10.2806 0.765524 10.1713 0.712741 10.0556 0.684445C9.93981 0.656149 9.81988 0.652919 9.70292 0.674946C9.58597 0.696973 9.47437 0.743807 9.37476 0.812663C9.27516 0.881519 9.18958 0.970991 9.12313 1.07576C9.05667 1.18052 9.01069 1.29844 8.98793 1.4225C8.96516 1.54656 8.96607 1.67422 8.99061 1.7979L9.46007 4.6353C8.01795 5.08848 6.72567 5.96648 5.73243 7.16792L3.51061 5.51198C3.31817 5.36843 3.08002 5.31212 2.84857 5.35543C2.61712 5.39874 2.41131 5.53813 2.27643 5.74293C2.14154 5.94773 2.08863 6.20116 2.12933 6.44748C2.17002 6.6938 2.301 6.91282 2.49344 7.05637L4.70788 8.70917C4.06779 9.95537 3.73366 11.3534 3.73648 12.7736C3.73648 12.9511 3.73648 13.1287 3.75419 13.3062L1.08653 13.8058C0.86864 13.8464 0.672907 13.9723 0.537831 14.1587C0.402756 14.3452 0.338115 14.5786 0.356623 14.8132C0.375131 15.0478 0.475449 15.2665 0.637844 15.4264C0.80024 15.5862 1.01296 15.6756 1.23416 15.677C1.28611 15.6768 1.33796 15.6721 1.38917 15.6629L4.06126 15.1617C4.29245 16.0003 4.64509 16.7954 5.10648 17.5183C3.96873 18.5667 3.15927 19.9601 2.7866 21.5119C2.41393 23.0636 2.49586 24.6995 3.0214 26.2003C3.54694 27.7011 4.49098 28.995 5.727 29.9088C6.96302 30.8225 8.43195 31.3123 9.93691 31.3126H21.7473C24.6446 31.3126 27.4233 30.0877 29.4721 27.9074C31.5208 25.727 32.6718 22.7699 32.6718 19.6864C32.6718 16.603 31.5208 13.6458 29.4721 11.4655C27.4233 9.2852 24.6446 8.0603 21.7473 8.0603ZM5.50803 12.7736C5.50758 11.344 5.9434 9.95296 6.74989 8.80971C7.55639 7.66645 8.68995 6.83286 9.98002 6.43435C11.2701 6.03583 12.6469 6.09396 13.9032 6.59998C15.1595 7.106 16.2275 8.03255 16.9464 9.2402C14.3859 10.5698 12.4121 12.9076 11.4427 15.7587C10.9471 15.652 10.4426 15.5993 9.93691 15.6016C8.76644 15.6006 7.61278 15.898 6.57244 16.4688C5.87903 15.3778 5.50832 14.0908 5.50803 12.7736ZM21.7473 29.4273H9.93691C9.15631 29.4267 8.38442 29.2527 7.6706 28.9164C6.95679 28.5802 6.31677 28.0891 5.79147 27.4747C5.26617 26.8602 4.86716 26.1358 4.61995 25.3478C4.37274 24.5598 4.28278 23.7256 4.35581 22.8985C4.42885 22.0714 4.66327 21.2697 5.0441 20.5445C5.42492 19.8193 5.94376 19.1867 6.56744 18.6871C7.19111 18.1875 7.9059 17.832 8.66607 17.6432C9.42624 17.4543 10.2151 17.4364 10.9821 17.5906C10.903 18.0582 10.8503 18.5303 10.8242 19.0046C10.8105 19.2546 10.8906 19.5002 11.0471 19.6873C11.2035 19.8744 11.4233 19.9877 11.6583 20.0022C11.8932 20.0168 12.1239 19.9315 12.2997 19.765C12.4755 19.5986 12.582 19.3646 12.5957 19.1146C12.633 18.4646 12.732 17.8203 12.891 17.1915C12.891 17.168 12.9028 17.146 12.9072 17.124C13.3547 15.3688 14.2545 13.7818 15.505 12.5422C16.7555 11.3027 18.3068 10.4601 19.9837 10.1096C21.6606 9.75906 23.3961 9.91465 24.9942 10.5588C26.5924 11.2029 27.9894 12.3098 29.0274 13.7545C30.0655 15.1992 30.7031 16.924 30.8684 18.7342C31.0336 20.5443 30.7199 22.3675 29.9626 23.9979C29.2053 25.6282 28.0346 27.0006 26.5829 27.96C25.1311 28.9195 23.4562 29.4277 21.7473 29.4273Z" fill="white"/>
</svg>
